<?xml version="1.0"?>
<svg xmlns="http://www.w3.org/2000/svg" width="338" height="309" viewBox="0 0 338 309">
  <path fill="#5a8d3e" fill-rule="evenodd" stroke="#000" stroke-width="1.829" d="M17.727 228.459c-7.057-7.804-10.4-18.556-13.062-28.734l-.205-.794c-2.5-9.709-4.46-20.114-2.407-29.9 1.98-9.437 9.546-16.774 13.714-25.469 6.97-14.539 9.869-30.19 18.843-44.55 0 0 .5-.789.749-1.164 4.51-6.8 10.718-12.4 16.98-17.632 2.408-2.013 7.836-5.225 7.836-5.225S67.99 62.352 71.93 56.053c6.278-10.036 11.035-21.228 18.938-30.04 6.31-7.036 13.827-13.258 22.204-17.633 8.058-4.208 17.046-7.33 26.122-7.837 9.72-.543 19.517 2.094 28.735 5.225 8.112 2.755 16.466 6.048 22.857 11.755 1.756 1.568 3.918 5.877 3.918 5.877s22.644-12.651 34.448-15.02c11.805-2.369 26.351-3.257 34.775 0 8.425 3.257 9.902 7.614 14.368 13.061 4.465 5.448 9.722 12.252 11.755 19.592.58 2.098 0 6.53 0 6.53s21.953 10.684 30.693 18.939c4.49 4.24 7.402 10.625 10.612 15.183 2.237 3.177 6.186 4.88 6.79 8.119.287 1.53-.357 3.556-1.116 5.267-.847 1.911-3.222 1.814-3.222 1.814-3.635 3.664-2.615 13.371-2.615 13.371s-.593 5.735-3.187 8.11c-2.54 2.325-5.686 1.473-8.162 3.888-1.972 3.709-3.245 4.834-4.977 6.94-4.947 6.016-20.898 10.45-20.898 10.45s-.507 3.134 0 4.571c.88 2.492 2.34 4.647 4.067 6.652 3.938 4.572 9.264 8.363 12.26 13.593 4.28 7.472 9.142 24.163 9.142 24.163s-18.17 34.975-32.653 47.672c-13.03 11.424-29.934 18.01-46.366 23.51-11.743 3.93-24.23 5.52-36.571 6.53-16.49 1.352-33.127.499-49.632-.652-31.083-2.168-63.16-1.945-92.734-11.755-15.322-5.082-29.67-11.847-42.158-23.83a32.344 32.344 0 01-1.596-1.64z"/>
  <path fill="#5a8d3e" fill-rule="evenodd" stroke="#000" stroke-width="1.097" d="M28.748 240.698l13.06 20.244s36.4 11.093 54.857 15.673c15.332 3.805 30.64 8.327 46.367 9.797 19.944 1.86 40.532 3.06 60.081-1.31 8.37-1.868 23.51-10.446 23.51-10.446l12.558-14.522c-44.226 11.354-111.596 9.127-210.433-19.436h0z"/>
  <path fill="#9f5935" stroke="#000" stroke-width="1.829" d="M106.061 213.297c-2.878-2.695-1.819-5.673-1.306-8.49.715-3.932 3.054-7.621 5.877-10.45 3.345-3.35 7.817-5.68 12.368-6.985 10.905-3.125 22.942-2.7 34-1.504 12.488 1.35 22.883 7.996 35.264 10.123 15.274 2.623 47.673 4.244 47.673 4.244s18.776.39 28.081-.653c16.334-1.83 34.78-.487 48.326-9.795 2.34-1.608 2.82-1.84 4.782-1.88 2.93-.061 3.068 3.48 3.57 7.299.607 4.634-1.449 6.642-4.899 9.795-2.089 1.91-2.635 1.917-5.182 3.15-2.017.977-6.108 1.88-6.108 1.88s.87 7.383-.755 10.489c-1.815 3.468-5.563 5.782-9.14 7.37-8.429 3.747-27.329 4.345-27.329 4.345s-61.899-1.984-94.04-7.184c-9.277-1.5-18.12-5.226-27.428-6.53-14.458-2.026-33.096 4.753-43.754-5.224h0z"/>
  <path fill="#fff" stroke="#000" stroke-width="1.829" d="M226.31 108.73c1.15-3.608 3.925-5.4 6.812-7.85 5.16-4.379 14.987-7.171 22.985-9.213 9.71-2.478 19.844-3.086 29.855-3.556 10.278-.483 20.838-1.578 30.857.763 6.249 1.459 13.23 3.276 17.464 8.097 1.753 1.996 3.056 4.581 2.393 7.603-.65 2.965-2.106 3.742-5.271 5.891-3.165 2.15-9.738 4.265-14.124 5.192-9.4 2.107-18.561 5.748-28.168 6.465-14.01 1.044-28.479-.177-42.484-2.425-4.144-.665-8.5-1.205-12.165-3.252-3.266-1.825-8.767-5.786-8.153-7.715z"/>
  <path fill="#fff" stroke="#000" stroke-width="1.829" d="M121.025 105.036s24.656 14.498 38.328 18.01c9.412 2.416 19.419 2.765 29.092 1.846 14.086-1.338 27.063-2.232 36.833-12.468 4.669-4.891 7.978-9.79 6.465-16.162-.423-1.778-.413-4.888-2.26-5.35-1.848-.462-23.162-2.083-36.42-.191-16.453 2.347-31.606 10.822-48.025 13.391-7.914 1.238-24.013.924-24.013.924z"/>
  <path stroke="#000" stroke-width="1.097" d="M314.895 114.548c0 .857-18.226 7.628-34.938 7.183-11.461-.305-14.589 1.162-15.438-1.525-.22-.694-.502-2.635-.483-3.811.128-7.784 6.4-18.405 13.675-24.09 3.62-2.83 8.995-3.119 13.275-3.705 14.294-1.956 23.91 11.517 23.91 25.948z"/>
  <path fill="#0446fc" stroke="#000" stroke-width="1.829" d="M17.243 251.696l.227-9.213s3.27-1.65 5.03-2.1c2.494-.636 7.682-.805 7.682-.805s5.913 5.632 18.626 13.849c12.713 8.217 45.85 16.14 69.55 21.224 18.883 4.05 34.753 7.46 54.056 7.127 15.745-1.077 31.418-2.67 44.086-7.55 5.28-2.085 18.062-8.218 18.062-8.218s12.217 4.95 14.166 5.98c13.113 6.923 13.893 11.682 24.588 21.182 5.296 4.7 14.694 15.34 14.694 15.34l-271.375-2.82.608-53.996z"/>
  <path fill="none" stroke="#000" stroke-width="1.097" stroke-linecap="round" d="M84.727 214.915s2.63 7.644 5.669 10.9c4.344 5.054 12.315 7.535 12.315 7.535"/>
  <path stroke="#000" stroke-width="1.097" d="M210.08 121.078s-15.287 3.755-29.714 3.755c-14.426 0-22.819-2.89-22.819-2.89.072-14.424 16.152-28.095 28.207-27.967 6.81.073 13.645 2.79 18.092 7.07 4.972 4.788 5.41 12.461 6.234 20.032z"/>
  <ellipse transform="translate(-4.65 -716.318)" fill="#fff" ry="5.08" rx="4.156" cy="822.576" cx="180.903"/>
  <circle transform="translate(-4.65 -716.318)" fill="#fff" r="7.158" cy="829.897" cx="196.097"/>
  <ellipse transform="translate(-4.65 -716.318)" fill="#fff" cx="180.292" cy="834.284" rx="3.337" ry="3.232"/>
  <ellipse transform="translate(-4.65 -716.318)" fill="#fff" cx="284.743" cy="819.428" rx="3.087" ry="3.773"/>
  <circle transform="translate(-4.65 -716.318)" fill="#fff" cx="299.848" cy="824.137" r="6.015"/>
  <ellipse transform="translate(-4.65 -716.318)" fill="#fff" ry="2.45" rx="2.529" cy="830.269" cx="285.301"/>
  <path fill="none" stroke="#000" stroke-width="1.097" stroke-linecap="round" d="M308.805 208.808c-7.4 3.695-26.895 7.023-40.44 7.29-22.226.436-43.323-.34-65.468-2.286-13.771-1.21-31.304-10.62-45.068-11.914-10.64-1-33.038 2.312-33.038 2.312M60.94 74.461c-4.942 8.009-5.684 20.97-8.239 31.366"/>
  <path fill="none" stroke="#000" stroke-width="1.097" d="M194.475 23.86c3.811 6.296 5.94 13.736 3.034 24.892 7.79 5.042 5.034 7.972 9.11 13.839"/>
  <path fill="none" stroke="#000" stroke-width="1.097" d="M290.814 48.263c-2.827-.987-9.524-3.607-14.533-4.07-26.248-2.423-50.011-2.02-79.262 4.396"/>
  <path fill="none" stroke="#000" stroke-width="1.097" d="M197.38 48.585c-13.238-6.028-18.542-12.275-41.784-12.168-21.368.098-43.292 16.243-50.105 21.464M294.324 139.133c-13.993 2.603-24.944 5.352-43.656 3.113M238.488 135.935c3.435 2.083 14.527 5.467 20.408 14.04M227.386 110.548s1.908.335 2.857 1.795c2.337 3.596-2.982 8.354-6.204 11.184-8.504 5.55-18.214 6.313-27.145 7.29-15.792 1.728-32.148 2.522-47.548-1.25-9.881-2.42-27.428-13.387-27.428-13.387"/>
  <path fill="#5a8d3e" d="M226.06 113.507c.833-1.056.91-1.476 2.102-1.551.978-.062 1.92 1.219 2.143 2.224.163.737-.3 1.525-.735 2.143-1.058 1.504-4.306 3.449-4.306 3.449s-.038-5.21.796-6.265z"/>
  <path fill="none" stroke="#000" stroke-width="1.097" d="M121.714 104.71s-9.015-.038-12.857-2.897c-1.823-1.357-3.382-2.107-2.612-4.245.798-2.215 3.583-3.39 5.877-3.918 4.71-1.084 8.941.076 14.53-1.633 5.59-1.709 12.806-6.45 18.123-9.47 5.317-3.018 5.68-5.63 13.835-8.506 8.155-2.876 20.12-1.136 20.12-1.136"/>
  <path fill="none" stroke="#000" stroke-width="1.097" d="M121.918 85.16s8.956-2.859 13.166-4.91c6.915-3.37 12.604-9.033 19.675-12.061 7.167-3.07 14.879-4.973 22.608-5.997 8.22-1.088 19.22-.679 24.873-.102 5.413.568 14.03 1.76 18.289 3.348 4.26 1.587 4.998 5.135 4.245 7.184-.753 2.048-2.76 1.254-4.49 1.55"/>
  <path fill="none" stroke="#000" stroke-width="1.097" stroke-linecap="round" d="M230.57 90.874s1.345-2.15 1.306-3.347c-.122-3.723-2.913-7.238-4.735-10.122-2.362-3.74-7.64-2.87-9.796-3.918M229.273 79.903s18.147-5.657 27.827-7.15c11.206-1.73 22.67-3.02 33.959-1.96 11.617 1.091 22.264 4.832 33.381 8.374 4.378 1.395 9.803 5.4 9.803 5.4"/>
  <path fill="none" stroke="#000" stroke-width="1.097" stroke-linecap="round" d="M235.813 68.626s23.108-6.53 35.001-7.302c12.854-.834 26.13-.546 38.53 2.938 5.764 1.62 16 8.164 16 8.164M172.236 154.272c35.703-12.027 38.912-21.54 45.987-27.663"/>
</svg>